# xmcd CD database file
#
# Track frame offsets:
#	150
#	14438
#	34635
#	47474
#	71909
#	84653
#	100064
#	115278
#	135934
#	148254
#	164299
#	180759
#
# Disc length: 2592 seconds
#
# Revision: 0
# Processed by: cddbd v1.5.2PL0 Copyright (c) Steve Scherf et al.
# Submitted via: CDex 1.51
#
DISCID=970a1e0c
DTITLE=Rick Holmstrom - Cruel Sunrice Deluxe Edition  CD 2
DYEAR=2012
DGENRE=Blues
TTITLE0=In My Solitude ( D. Ellington)
TTITLE1=Oh Mary, Don`t You Weep ( Traditional)
TTITLE2=Hallelujah, I Love Her So ( R. Charles)
TTITLE3=I`m So Lonesome I Could Cry ( H. Williams)
TTITLE4=Go Down Moses ( Trad.)
TTITLE5=Just A Closer Walk With Thee ( Trad.)
TTITLE6=Wayfaring Stranger ( Trad.)
TTITLE7=One Mint Julep ( R. Toombs)
TTITLE8=Shenandoah ( Trad.)
TTITLE9=Folsom Prison Blues ( J. Cash)
TTITLE10=I`ll Take You There ( A. Bell, M. Staples)
TTITLE11=You Send Me ( S. Cooke)
EXTD=YEAR: 2012
EXTT0=
EXTT1=
EXTT2=
EXTT3=
EXTT4=
EXTT5=
EXTT6=
EXTT7=
EXTT8=
EXTT9=
EXTT10=
EXTT11=
PLAYORDER=
